<svg xmlns="http://www.w3.org/2000/svg" xmlns:xlink="http://www.w3.org/1999/xlink" viewBox="0 0 359.53 731.99"><defs><style>.cls-1{isolation:isolate;}.cls-2,.cls-24{fill:#231f20;}.cls-3{fill:#272425;}.cls-4{fill:#2b2829;}.cls-5{fill:#2e2d2e;}.cls-6{fill:#323132;}.cls-7{fill:#353536;}.cls-8{fill:#39383a;}.cls-9{fill:#3c3c3e;}.cls-10{fill:#3f3f42;}.cls-11{fill:#424345;}.cls-12{fill:#454648;}.cls-13{fill:#47494b;}.cls-14{fill:#4a4c4e;}.cls-15{fill:#4d4f52;}.cls-16{fill:#4f5255;}.cls-17{fill:#525458;}.cls-18{fill:#54575a;}.cls-19{fill:#575a5d;}.cls-20{opacity:0.18;fill:url(#linear-gradient);}.cls-20,.cls-21,.cls-29{mix-blend-mode:screen;}.cls-21{opacity:0.7;}.cls-22,.cls-29{fill:#3b3b3b;}.cls-23{fill:#202021;}.cls-24{opacity:0.65;}.cls-25,.cls-29{opacity:0.68;}.cls-25{fill:url(#radial-gradient);}.cls-26{fill:url(#radial-gradient-2);}.cls-27{fill:url(#radial-gradient-3);}.cls-28{fill:#0f0f0f;}.cls-30{fill:#fff;}.cls-31{fill:#d4d4d6;}.cls-32{fill:#34867b;}.cls-33{fill:#a1a3a6;}.cls-34{fill:#2a5f59;}</style><linearGradient id="linear-gradient" x1="120.21" y1="80.33" x2="475.01" y2="80.33" gradientUnits="userSpaceOnUse"><stop offset="0" stop-color="#818287"/><stop offset="0.17" stop-color="#96999f"/><stop offset="0.4" stop-color="#afb5bd"/><stop offset="0.54" stop-color="#b8bfc8"/><stop offset="0.7" stop-color="#a8adb5"/><stop offset="1" stop-color="#818287"/></linearGradient><radialGradient id="radial-gradient" cx="297.7" cy="81.81" r="19.32" gradientUnits="userSpaceOnUse"><stop offset="0" stop-color="#5c5c5c"/><stop offset="0.22" stop-color="#505050"/><stop offset="0.61" stop-color="#323232"/><stop offset="0.91" stop-color="#171717"/><stop offset="1" stop-color="#1a1a1a"/></radialGradient><radialGradient id="radial-gradient-2" cx="332.61" cy="78.42" r="2.72" gradientUnits="userSpaceOnUse"><stop offset="0" stop-color="#a3a3a3"/><stop offset="0.05" stop-color="#979797"/><stop offset="0.14" stop-color="#797979"/><stop offset="0.23" stop-color="#555"/><stop offset="0.91" stop-color="#171717"/><stop offset="1" stop-color="#1a1a1a"/></radialGradient><radialGradient id="radial-gradient-3" cx="332.66" cy="79.99" r="2.7" xlink:href="#radial-gradient"/></defs><g class="cls-1"><g id="Main_Body" data-name="Main Body"><path class="cls-2" d="M476.13,284.62a1.86,1.86,0,0,0,.45,1.19V740.45A46.6,46.6,0,0,1,430,787.06H165.34a46.6,46.6,0,0,1-46.6-46.61V302.7a1.85,1.85,0,0,0,.26-.9V255.42a1.85,1.85,0,0,0-.26-.9V240.61a1.82,1.82,0,0,0,.26-.9V192.65a1.85,1.85,0,0,0-.26-.9V170.18a1.85,1.85,0,0,0,.26-.9V145.73a1.85,1.85,0,0,0-.26-.9V101.67a46.6,46.6,0,0,1,46.6-46.61H430a46.6,46.6,0,0,1,46.6,46.61v108a1.86,1.86,0,0,0-.45,1.19Z" transform="translate(-117.79 -55.06)"/><path class="cls-3" d="M119.54,301.77V255.45a1.87,1.87,0,0,0-.25-.9v-14a1.84,1.84,0,0,0,.25-.9v-47a1.8,1.8,0,0,0-.25-.89V170.17a1.8,1.8,0,0,0,.25-.89V145.71a1.77,1.77,0,0,0-.25-.89V101.67a46.06,46.06,0,0,1,46.06-46.05H430A46.06,46.06,0,0,1,476,101.67v108a1.88,1.88,0,0,0-.44,1.17v73.8a1.88,1.88,0,0,0,.44,1.17V740.38A46.06,46.06,0,0,1,430,786.44H165.35a46.06,46.06,0,0,1-46.06-46.06V302.67A1.84,1.84,0,0,0,119.54,301.77Z" transform="translate(-117.79 -55.06)"/><path class="cls-4" d="M120.08,301.75V255.48a2.1,2.1,0,0,0-.23-.9V240.51a2.11,2.11,0,0,0,.23-.91V192.7a2,2,0,0,0-.23-.89V170.16a2,2,0,0,0,.23-.88v-23.6a2,2,0,0,0-.23-.87V101.67a45.5,45.5,0,0,1,45.5-45.5H430a45.5,45.5,0,0,1,45.5,45.5v108a1.94,1.94,0,0,0-.41,1.15v73.86a1.89,1.89,0,0,0,.41,1.14v454.5a45.5,45.5,0,0,1-45.5,45.5H165.35a45.5,45.5,0,0,1-45.5-45.5V302.63A2,2,0,0,0,120.08,301.75Z" transform="translate(-117.79 -55.06)"/><path class="cls-5" d="M120.62,301.73V255.51a2.13,2.13,0,0,0-.22-.9V240.46a2.14,2.14,0,0,0,.22-.91V192.72a2,2,0,0,0-.22-.88V170.15a2,2,0,0,0,.22-.88V145.66a1.89,1.89,0,0,0-.22-.86V101.66a44.94,44.94,0,0,1,44.95-44.94H429.94a44.94,44.94,0,0,1,44.94,44.94v108a1.94,1.94,0,0,0-.38,1.13V284.7a1.9,1.9,0,0,0,.38,1.13V740.26a44.94,44.94,0,0,1-44.94,44.94H165.35a44.94,44.94,0,0,1-44.95-44.94V302.6A2,2,0,0,0,120.62,301.73Z" transform="translate(-117.79 -55.06)"/><path class="cls-6" d="M121.16,301.7V255.54a2.28,2.28,0,0,0-.2-.9V240.41a2.33,2.33,0,0,0,.2-.92V192.74a2.1,2.1,0,0,0-.2-.87V170.14a2.06,2.06,0,0,0,.2-.87V145.63a2,2,0,0,0-.2-.84V101.66a44.39,44.39,0,0,1,44.39-44.39H429.93a44.39,44.39,0,0,1,44.38,44.39v108a2,2,0,0,0-.35,1.11v74a2,2,0,0,0,.35,1.11V740.2a44.38,44.38,0,0,1-44.38,44.38H165.35A44.38,44.38,0,0,1,121,740.2V302.57A2.1,2.1,0,0,0,121.16,301.7Z" transform="translate(-117.79 -55.06)"/><path class="cls-7" d="M121.7,301.68V255.57a2.72,2.72,0,0,0-.18-.9V240.36a2.74,2.74,0,0,0,.18-.92V192.77a2.45,2.45,0,0,0-.18-.87V170.14a2.5,2.5,0,0,0,.18-.87V145.61a2.29,2.29,0,0,0-.18-.84V101.66a43.83,43.83,0,0,1,43.83-43.84H429.91a43.83,43.83,0,0,1,43.83,43.84v108a2.12,2.12,0,0,0-.32,1.1v74a2.11,2.11,0,0,0,.32,1.09V740.13A43.83,43.83,0,0,1,429.91,784H165.35a43.83,43.83,0,0,1-43.83-43.83V302.54A2.4,2.4,0,0,0,121.7,301.68Z" transform="translate(-117.79 -55.06)"/><path class="cls-8" d="M122.24,301.66V255.6a2.71,2.71,0,0,0-.17-.9V240.31a2.83,2.83,0,0,0,.17-.92v-46.6a2.44,2.44,0,0,0-.17-.86v-21.8a2.44,2.44,0,0,0,.17-.86V145.58a2.27,2.27,0,0,0-.17-.82V101.65a43.28,43.28,0,0,1,43.28-43.27H429.9a43.27,43.27,0,0,1,43.27,43.27v108a2.26,2.26,0,0,0-.29,1.08v74.07a2.26,2.26,0,0,0,.29,1.08V740.07a43.27,43.27,0,0,1-43.27,43.27H165.35a43.28,43.28,0,0,1-43.28-43.27V302.51A2.43,2.43,0,0,0,122.24,301.66Z" transform="translate(-117.79 -55.06)"/><path class="cls-9" d="M122.78,301.64v-46a3,3,0,0,0-.15-.9V240.26a3.12,3.12,0,0,0,.15-.93V192.82a2.63,2.63,0,0,0-.15-.86V170.12a2.66,2.66,0,0,0,.15-.85V145.56a2.38,2.38,0,0,0-.15-.81v-43.1a42.72,42.72,0,0,1,42.72-42.72H429.89a42.72,42.72,0,0,1,42.72,42.72v108a2.27,2.27,0,0,0-.27,1.05v74.13a2.35,2.35,0,0,0,.27,1.06V740a42.72,42.72,0,0,1-42.72,42.72H165.35A42.72,42.72,0,0,1,122.63,740V302.48A2.6,2.6,0,0,0,122.78,301.64Z" transform="translate(-117.79 -55.06)"/><path class="cls-10" d="M123.33,301.61v-46a3.25,3.25,0,0,0-.14-.89V240.2a3.47,3.47,0,0,0,.14-.92V192.84a2.91,2.91,0,0,0-.14-.85V170.11a3,3,0,0,0,.14-.84V145.54a2.58,2.58,0,0,0-.14-.8v-43.1a42.16,42.16,0,0,1,42.16-42.16H429.87A42.17,42.17,0,0,1,472,101.64v108a2.33,2.33,0,0,0-.24,1v74.19a2.33,2.33,0,0,0,.24,1V739.94a42.17,42.17,0,0,1-42.17,42.17H165.35a42.16,42.16,0,0,1-42.16-42.17V302.44A2.78,2.78,0,0,0,123.33,301.61Z" transform="translate(-117.79 -55.06)"/><path class="cls-11" d="M123.87,301.59v-45.9a3.68,3.68,0,0,0-.13-.89V240.15a3.94,3.94,0,0,0,.13-.93V192.86a3.43,3.43,0,0,0-.13-.85V170.1a3.28,3.28,0,0,0,.13-.84V145.51a2.83,2.83,0,0,0-.13-.78V101.64A41.61,41.61,0,0,1,165.35,60H429.86a41.61,41.61,0,0,1,41.61,41.61v108a2.57,2.57,0,0,0-.22,1v74.25a2.57,2.57,0,0,0,.22,1v454a41.61,41.61,0,0,1-41.61,41.61H165.35a41.61,41.61,0,0,1-41.61-41.61V302.41A3.06,3.06,0,0,0,123.87,301.59Z" transform="translate(-117.79 -55.06)"/><path class="cls-12" d="M124.41,301.57V255.72a4.25,4.25,0,0,0-.11-.89V240.1a4.64,4.64,0,0,0,.11-.93V192.89a4,4,0,0,0-.11-.85V170.09a3.69,3.69,0,0,0,.11-.83V145.49a3.18,3.18,0,0,0-.11-.77V101.64a41.05,41.05,0,0,1,41.05-41.06h264.5a41.05,41.05,0,0,1,41,41.06v108a2.86,2.86,0,0,0-.19,1v74.3a2.92,2.92,0,0,0,.19,1V739.82a41.05,41.05,0,0,1-41,41H165.35a41.05,41.05,0,0,1-41-41V302.38A3.6,3.6,0,0,0,124.41,301.57Z" transform="translate(-117.79 -55.06)"/><path class="cls-13" d="M125,301.54V255.75a4.26,4.26,0,0,0-.1-.89V240.05a4.75,4.75,0,0,0,.1-.94v-46.2a3.86,3.86,0,0,0-.1-.84v-22a3.61,3.61,0,0,0,.1-.82v-23.8a3,3,0,0,0-.1-.75V101.63a40.5,40.5,0,0,1,40.5-40.49H429.84a40.49,40.49,0,0,1,40.49,40.49v108a3.34,3.34,0,0,0-.16,1v74.36a3.47,3.47,0,0,0,.16,1V739.75a40.49,40.49,0,0,1-40.49,40.5H165.35a40.5,40.5,0,0,1-40.5-40.5V302.35A3.59,3.59,0,0,0,125,301.54Z" transform="translate(-117.79 -55.06)"/><path class="cls-14" d="M125.49,301.52V255.78a5.17,5.17,0,0,0-.08-.89V240a5.77,5.77,0,0,0,.08-.94V192.94a4.6,4.6,0,0,0-.08-.84v-22a4.28,4.28,0,0,0,.08-.81V145.44a3.57,3.57,0,0,0-.08-.74V101.63a39.94,39.94,0,0,1,39.94-39.94H429.82a40,40,0,0,1,39.95,39.94v108a3.27,3.27,0,0,0-.14,1V285a3.38,3.38,0,0,0,.14,1V739.69a40,40,0,0,1-39.95,39.94H165.35a39.94,39.94,0,0,1-39.94-39.94V302.32A4.17,4.17,0,0,0,125.49,301.52Z" transform="translate(-117.79 -55.06)"/><path class="cls-15" d="M126,301.5V255.81a8.48,8.48,0,0,0-.06-.89V240c0-.06.06-.86.06-.94V193a7.54,7.54,0,0,0-.06-.83V170.06a6.83,6.83,0,0,0,.06-.8V145.41a5.52,5.52,0,0,0-.06-.72V101.63a39.38,39.38,0,0,1,39.38-39.39H429.81a39.39,39.39,0,0,1,39.39,39.39V209.57a4,4,0,0,0-.11.94V285a4,4,0,0,0,.11.94V739.63A39.39,39.39,0,0,1,429.81,779H165.35A39.38,39.38,0,0,1,126,739.63V302.29A6.83,6.83,0,0,0,126,301.5Z" transform="translate(-117.79 -55.06)"/><path class="cls-16" d="M126.57,301.48V255.84a8.69,8.69,0,0,0,0-.89v-15c0-.05,0-.89,0-1V193a7.37,7.37,0,0,0,0-.82V170.05a6.84,6.84,0,0,0,0-.79V145.39a5.68,5.68,0,0,0,0-.72v-43a38.84,38.84,0,0,1,38.83-38.83H429.8a38.84,38.84,0,0,1,38.83,38.83V209.56a5.43,5.43,0,0,0-.08.92V285a5.52,5.52,0,0,0,.08.92V739.56a38.83,38.83,0,0,1-38.83,38.83H165.35a38.83,38.83,0,0,1-38.83-38.83V302.26A6.81,6.81,0,0,0,126.57,301.48Z" transform="translate(-117.79 -55.06)"/><path class="cls-17" d="M127.11,301.45V255.87s0-.86,0-.89V239.85s0-.91,0-.95V193s0-.79,0-.82V170s0-.75,0-.79V145.36s0-.67,0-.7v-43a38.28,38.28,0,0,1,38.27-38.28H429.79a38.28,38.28,0,0,1,38.27,38.28V209.55a8.88,8.88,0,0,0-.05.9V285a8.88,8.88,0,0,0,.05.9V739.5a38.27,38.27,0,0,1-38.27,38.27H165.35a38.27,38.27,0,0,1-38.27-38.27V302.22S127.11,301.49,127.11,301.45Z" transform="translate(-117.79 -55.06)"/><path class="cls-18" d="M127.65,301.43V255.9s0-.87,0-.89V239.8s0-.94,0-1V193s0-.79,0-.81V170s0-.77,0-.79V145.34s0-.67,0-.69v-43A37.72,37.72,0,0,1,165.35,63.9H429.77a37.72,37.72,0,0,1,37.72,37.72V209.54s0,.85,0,.88v74.64s0,.86,0,.88v453.5a37.72,37.72,0,0,1-37.72,37.72H165.35a37.72,37.72,0,0,1-37.72-37.72V302.19S127.65,301.45,127.65,301.43Z" transform="translate(-117.79 -55.06)"/><path class="cls-19" d="M128.19,301.41V101.61a37.17,37.17,0,0,1,37.17-37.16h264.4a37.16,37.16,0,0,1,37.16,37.16V739.37a37.17,37.17,0,0,1-37.16,37.17H165.36a37.17,37.17,0,0,1-37.17-37.17v-438Z" transform="translate(-117.79 -55.06)"/><path class="cls-20" d="M430,56.65H166.18a46,46,0,0,0-46,46.23V104a46,46,0,0,1,46-46.22H430c25.52,0,45,20.69,45,46.22v-1.13C475,77.35,455.56,56.65,430,56.65Z" transform="translate(-117.79 -55.06)"/><rect class="cls-2" x="18.54" y="17.59" width="322.76" height="695.95" rx="29.02"/><g class="cls-21"><path class="cls-22" d="M448,65.54c12.2,5.61,20.88,21.33,20.88,36.42V739.87c0,17-11,34.32-25.63,38.47,16.79-3.18,28.73-21,28.73-38.47V102C472,86.16,462.41,70.52,448,65.54Z" transform="translate(-117.79 -55.06)"/></g><g class="cls-21"><path class="cls-22" d="M145.42,65.54c-12.2,5.61-20.88,21.33-20.88,36.42V739.87c0,17,11,34.32,25.63,38.47-16.79-3.18-28.73-21-28.73-38.47V102C121.44,86.16,131,70.52,145.42,65.54Z" transform="translate(-117.79 -55.06)"/></g><path class="cls-23" d="M279.16,81.1a2.23,2.23,0,1,1,0-4.45h38a2.23,2.23,0,0,1,0,4.45Z" transform="translate(-117.79 -55.06)"/><path class="cls-24" d="M279.16,76.65h38a2.21,2.21,0,0,1,2.18,1.82,1.93,1.93,0,0,0,0-.42,2.22,2.22,0,0,0-2.22-2.22h-38a2.22,2.22,0,0,0-2.22,2.22,1.93,1.93,0,0,0,0,.42A2.21,2.21,0,0,1,279.16,76.65Z" transform="translate(-117.79 -55.06)"/><path class="cls-25" d="M317.21,81.1h-38A2.21,2.21,0,0,1,277,79.29a1.84,1.84,0,0,0-.05.41,2.23,2.23,0,0,0,2.23,2.23h38a2.22,2.22,0,0,0,2.22-2.23,1.84,1.84,0,0,0,0-.41A2.22,2.22,0,0,1,317.21,81.1Z" transform="translate(-117.79 -55.06)"/><path class="cls-26" d="M335.8,78.88a3.14,3.14,0,1,1-3.14-3.15A3.14,3.14,0,0,1,335.8,78.88Z" transform="translate(-117.79 -55.06)"/><path class="cls-27" d="M335.77,78c0,.12,0,.24,0,.37a3.14,3.14,0,1,1-6.28,0c0-.12,0-.24,0-.36a3.19,3.19,0,0,0-.12.82,3.23,3.23,0,1,0,6.34-.83Z" transform="translate(-117.79 -55.06)"/><path class="cls-28" d="M117.79,167.65a1.86,1.86,0,1,0,3.72,0V147.21a1.86,1.86,0,1,0-3.72,0Z" transform="translate(-117.79 -55.06)"/><path class="cls-28" d="M117.79,237.9a1.86,1.86,0,1,0,3.72,0V194.31a1.86,1.86,0,1,0-3.72,0Z" transform="translate(-117.79 -55.06)"/><path class="cls-28" d="M117.79,299.69a1.86,1.86,0,1,0,3.72,0V256.78a1.86,1.86,0,0,0-3.72,0Z" transform="translate(-117.79 -55.06)"/><path class="cls-28" d="M473.6,282.41a1.86,1.86,0,0,0,3.72,0V213.06a1.86,1.86,0,1,0-3.72,0Z" transform="translate(-117.79 -55.06)"/><path class="cls-29" d="M430,784.69H166.18a46,46,0,0,1-46-46.23v-1.13a46,46,0,0,0,46,46.22H430c25.52,0,45-20.69,45-46.22v1.13C475,764,455.56,784.69,430,784.69Z" transform="translate(-117.79 -55.06)"/></g><g id="Display"><path class="cls-30" d="M157.66,86.86a21.34,21.34,0,0,0-21.34,21.34V739.58a29,29,0,0,0,29,29H430.06a29,29,0,0,0,29-29V108.2a21.33,21.33,0,0,0-21.34-21.34Z" transform="translate(-117.79 -55.06)"/></g><g id="SNS"><path class="cls-31" d="M165.34,768.61H430.06a29,29,0,0,0,29-29v-7H136.32v7A29,29,0,0,0,165.34,768.61Z" transform="translate(-117.79 -55.06)"/><rect class="cls-32" x="18.54" y="52.35" width="322.76" height="62.11"/><path class="cls-33" d="M177.28,746.74a3,3,0,1,1-3-3A3,3,0,0,1,177.28,746.74Z" transform="translate(-117.79 -55.06)"/><path class="cls-33" d="M196.05,746.74a3,3,0,1,1-3-3A3,3,0,0,1,196.05,746.74Z" transform="translate(-117.79 -55.06)"/><path class="cls-33" d="M173.86,755.05a1,1,0,0,1,.39-1.37h0a1,1,0,0,1,1.36.39h0a9.17,9.17,0,0,0,8,4.73h0a9.16,9.16,0,0,0,8-4.73h0a1,1,0,0,1,1.37-.39h0a1,1,0,0,1,.39,1.37h0a11.19,11.19,0,0,1-9.79,5.77h0a11.17,11.17,0,0,1-9.79-5.77Z" transform="translate(-117.79 -55.06)"/><polygon class="cls-30" points="46.26 85.16 31.46 85.16 37.83 78.93 36.89 78 28.91 85.81 36.89 93.61 37.83 92.69 37.83 92.69 31.42 86.41 46.26 86.41 46.26 85.16"/><polygon class="cls-30" points="331.22 85.74 322.92 77.61 322.92 82.4 314.81 82.4 314.81 89.07 322.92 89.07 322.92 93.86 331.22 85.74"/><rect class="cls-32" x="269.2" y="683.54" width="39.29" height="25.15" rx="1.34"/><path class="cls-30" d="M397.3,751.18a10,10,0,0,1,10-10h0a10,10,0,0,1,10,10h0a10,10,0,0,1-10,10h0a10,10,0,0,1-10-10Zm2.36,0a7.69,7.69,0,0,0,7.68,7.68h0a7.7,7.7,0,0,0,7.69-7.68h0a7.7,7.7,0,0,0-7.69-7.68h0a7.69,7.69,0,0,0-7.68,7.68Z" transform="translate(-117.79 -55.06)"/><path class="cls-34" d="M437.7,86.86H157.62a21.32,21.32,0,0,0-21.3,20.55H459A21.32,21.32,0,0,0,437.7,86.86Z" transform="translate(-117.79 -55.06)"/><polygon class="cls-33" points="109.22 696.94 101.5 696.94 101.5 689.22 99.57 689.22 99.57 696.94 91.14 696.94 91.14 698.87 99.57 698.87 99.57 707.3 101.5 707.3 101.5 698.87 109.22 698.87 109.22 696.94"/></g></g></svg>