<svg id="Layer_1" data-name="Layer 1" xmlns="http://www.w3.org/2000/svg" viewBox="0 0 787.7 431.95"><defs><style>.cls-1{fill:#c05b28;}.cls-2{font-size:162.45px;fill:#f37a7c;font-family:FarmNew-Medium, Farm New;font-weight:500;}.cls-3{letter-spacing:-0.01em;}</style></defs><title>DIG3147_LOGO</title><path class="cls-1" d="M368.08,461.23A133.6,133.6,0,0,0,381,428.41a115.19,115.19,0,0,0,3.14-21.31l.81-21.33,1.59-42.66c1.12-28.43,2-56.87,2.89-85.3s1.63-56.87,2.42-85.32q.3-11.81.55-23.63l-60.28,43Z" transform="translate(-4.3 -30.6)"/><path class="cls-1" d="M397.48,172.49c.8,28.45,1.45,56.88,2.43,85.32s1.77,56.87,2.89,85.3l1.59,42.66.81,21.33a114.36,114.36,0,0,0,3.14,21.31A134.82,134.82,0,0,0,422,462.54L458,192.46l-61.11-43.6Q397.2,160.68,397.48,172.49Z" transform="translate(-4.3 -30.6)"/><path class="cls-1" d="M394.38,34.85c0-1.41.05-2.82.05-4.24a74,74,0,0,0-48.52,18.73l8.49-5.85A53.76,53.76,0,0,1,394.38,34.85Z" transform="translate(-4.3 -30.6)"/><path class="cls-1" d="M434.91,43.49l12,8.22a74,74,0,0,0-52-21.11c0,1.41,0,2.84,0,4.27A53.88,53.88,0,0,1,434.91,43.49Z" transform="translate(-4.3 -30.6)"/><path class="cls-1" d="M373.07,131.83A53.9,53.9,0,0,1,394.38,35a.13.13,0,0,0,0-.12,53.76,53.76,0,0,0-40,8.64l-8.49,5.85L230.38,128.75l-.8.55a55.23,55.23,0,1,0,64.15,89.93l38.37-27.37,60.28-43c0-1.06.05-2.13.07-3.2Z" transform="translate(-4.3 -30.6)"/><path class="cls-1" d="M558.94,128.75l-112.06-77-12-8.22a53.88,53.88,0,0,0-40-8.62.11.11,0,0,0,0,.08c.38,36.91,1.09,73.8,1.94,110.71,0,1.07,0,2.14.06,3.2L458,192.46l37.55,26.77.79.55a55.23,55.23,0,1,0,62.56-91Z" transform="translate(-4.3 -30.6)"/><path class="cls-1" d="M360.48,56.62a53.91,53.91,0,0,0,12.59,75.21l19.38,13.83c.84-36.89,1.56-73.8,1.93-110.69A53.7,53.7,0,0,0,360.48,56.62Z" transform="translate(-4.3 -30.6)"/><text class="cls-2" transform="translate(0 360.2)">M<tspan class="cls-3" x="135.15" y="0">A</tspan></text><text class="cls-2" transform="translate(550.21 360.2)">CH</text></svg>